<?xml version="1.0" encoding="utf-8"?>
<!-- Generator: Adobe Illustrator 23.0.0, SVG Export Plug-In . SVG Version: 6.00 Build 0)  -->
<svg version="1.1" id="Layer_1" xmlns="http://www.w3.org/2000/svg" xmlns:xlink="http://www.w3.org/1999/xlink" x="0px" y="0px"
	 viewBox="0 0 500 500" xml:space="preserve">
<style type="text/css">
	.st0{fill:url(#SVGID_1_);}
	.st1{fill:none;}
</style>
<g>
	<g>
		<path class="st1" d="M253.9,305.5c0,0,0.1,0.1,0.1,0.1L253.9,305.5C253.9,305.5,253.9,305.5,253.9,305.5z"/>
		<path class="st1" d="M137.9,191.5c3.7,8.7,9.6,15.1,19.2,17.3C149.1,204.8,142.8,199,137.9,191.5z"/>
		<path class="st1" d="M154.1,197.7c11.1,3.7,21.6,1.1,32,0C175.7,197.7,165.2,197.7,154.1,197.7z"/>
		<path class="st1" d="M313.8,197.7c0,0.3,0.1,0.6,0.1,0.9c10.4,0.2,21,2.9,31.7-0.9C334.7,197.7,324.3,197.7,313.8,197.7z"/>
		<path class="st1" d="M342.8,208.6c8.4-1.3,18.6-10.7,19.1-17.8C357.1,199,350.9,204.8,342.8,208.6z"/>
		<g>
			<path d="M367.5,152.2c-0.3,1.2-0.5,2.1-0.8,3.1c-3,9.2-5.6,18.5-9.3,27.4c-3.8,9-11.3,13.5-21.1,13.8c-2.1,0.1-4.2,0.1-6.3,0.1
				c-8,0-16.1-0.4-24.1,0.2c-6.2,0.4-12.3,2-18.5,3.2c-1.4,0.3-2.7,1.4-4.6,2.4c1.9,0.9,2.8,1.3,3.7,1.7c-0.4,1.7-0.6,3-0.9,4.3
				c1.4-0.1,2.9,0,4.3-0.3c2.4-0.5,4.6-1.4,7-2c9.7-2.3,19.4-2.8,29.2-1.4c-12.1,1.3-24.1,3-35.2,8.5c2.1-0.5,4.1-1,6.8-1.6
				c-1,2.5-1.6,4.1-2.5,6.2c1.8-0.2,2.9,0,3.9-0.4c10.9-3.8,22.1-4.1,33.5-4.1c14.3,0.1,24.9-6.7,30.8-19.8c2.4-5.3,3.8-11.2,5-17
				C370,168.7,369.3,157.3,367.5,152.2z M313.9,198.5c0-0.3-0.1-0.6-0.1-0.9c10.5,0,20.9,0,31.8,0
				C334.9,201.5,324.4,198.7,313.9,198.5z M342.8,208.6c8.1-3.9,14.3-9.7,19.1-17.8C361.4,198,351.2,207.4,342.8,208.6z"/>
		</g>
		<g>
			<path d="M204.9,217.9c-1.1-2.3-1.8-3.8-2.9-6.3c2.9,0.7,4.9,1.2,7,1.7c0.1-0.3,0.2-0.6,0.3-0.9c-5.8-1.7-11.6-3.6-17.5-4.9
				c-5.9-1.3-11.9-1.8-17.8-2.7c0-0.3,0-0.7,0-1c7.6,0.4,15.3,0.3,22.9,1.2c5.9,0.7,11.6,2.7,17.5,4.1c-0.3-1.6-0.5-3.2-0.8-4.9
				c0.8-0.4,1.8-1.1,3.4-2c-2-0.9-3.3-1.8-4.7-2.2c-4.1-1-8.3-2.4-12.5-2.6c-11.4-0.5-22.8-0.7-34.3-0.7
				c-11.2-0.1-19.5-4.8-23.6-15.2c-3.4-8.5-5.8-17.5-8.6-26.2c-0.3-0.9-0.5-1.8-1-3.6c-2.6,14.2-1.5,28,2.8,39
				c6,15.3,17.8,23.5,34.1,23c10.5-0.3,20.8,0.4,30.9,3.7C201.2,217.7,202.7,217.7,204.9,217.9z M137.9,191.5
				c4.9,7.4,11.2,13.3,19.2,17.3C147.5,206.6,141.6,200.3,137.9,191.5z M154.1,197.7c11.1,0,21.6,0,32,0
				C175.6,198.8,165.1,201.4,154.1,197.7z"/>
		</g>
		<g>
			<path d="M214.4,209.1c0,0-0.1,0-0.1,0c0,0,0,0.1,0,0.1C214.3,209.2,214.4,209.1,214.4,209.1z"/>
		</g>
		<g>
			<polygon points="214.4,209.1 214.4,209.1 214.4,209.1 			"/>
		</g>
		<g>
			<path d="M206.9,226.2c-3,0.3-5,0.4-7,0.6c-0.1-0.2-0.1-0.3-0.2-0.5c1.9-0.9,3.9-1.8,5.7-2.6c0-1.6,0-3.1,0-4.6
				c-2.9,0.8-5.5,0.9-8.2-1.3c-1.3-1.2-3.7-1.1-5.6-1.6c-0.1,0.2-0.1,0.4-0.2,0.6c2.3,1.1,4.5,2.2,7.1,3.4c-2.9,2.2-7-2.2-8.5,2.2
				c2.7,0.4,5.2,0.8,7.3,1.1c-6.2,7.2-10.4,15.2-13.5,23.7c0.3,0.2,0.5,0.3,0.8,0.5c1.3-2.3,2.7-4.6,4.3-7.4
				c0.4,1.2,0.5,1.6,0.7,2.2c0.9-0.8,1.6-1.5,2.3-2.1c0.2,0.2,0.5,0.3,0.7,0.5c-3.1,3.6-5.6,7.5-5.7,12.4c0.3,0.1,0.6,0.2,0.8,0.3
				c0.9-2.1,1.8-4.3,2.7-6.4c0.2,0.1,0.3,0.1,0.5,0.2c0.2,2.3,0.4,4.5,0.6,6.8c0.3,0,0.7-0.1,1-0.1c0-3.3,0-6.5,0-9.8
				c0.2,0,0.5,0,0.7,0c1.1,3.6,2.3,7.3,3.4,10.9c0.5-1.4,0.5-2.8,0-3.9c-1.6-3.6-2-6.8,1-10c1-1,1.2-2.7,1.9-4.5
				c-1.1,0.5-1.6,0.7-2.3,1C196.8,231,203.1,230.1,206.9,226.2z"/>
		</g>
		<g>
			<path d="M273.3,213.8c-0.3,0.2-0.6,0.4-1,0.6c1.6,3.2,3.1,6.5,4.7,9.7c-0.2,0.1-0.4,0.3-0.6,0.4c-1.3-1.4-2.5-2.8-3.8-4.2
				c0.6,1.9,1.8,3.4,2.7,4.9c2.9,4.6,5.6,9.1,5.3,15.2c-0.2,3.4,2.2,7,3.4,10.5c0.4-0.1,0.7-0.2,1.1-0.4c0.8-4.6-3.8-8.7-1.3-13.6
				c1.8,7.6,3.6,15.2,5.2,22.2c2.1-5.7,2.2-12.2,0.5-19c1.1,1.8,2.3,3.7,3.4,5.5c0.3-0.1,0.6-0.2,0.9-0.3c-1.2-2.6-2-5.5-3.6-7.9
				c-2.6-3.6-5.8-6.8-8.6-10.3c-1.9-2.4-3.5-5-5.2-7.5c7,2.2,7.8,9.8,13.1,14.3c-1-2.9-1.8-5.4-2.7-8.2c0.8,0.7,1.1,1.1,1.5,1.4
				c0.4,0.4,0.8,0.7,1.5,1.4C287.3,219.9,278.7,218.8,273.3,213.8z"/>
		</g>
		<g>
			<path d="M314.9,222.9c-0.4-0.8-0.4-0.8-8.8-2.4c2.9-1.3,5.1-2.3,7.3-3.2c-1.8-0.2-4-0.4-5.1,0.5c-2.7,2.3-5.6,2.1-8.5,1.2
				c-0.1,1.5-0.1,2.9-0.2,4.5c2.2,1.1,4.3,2.2,6.4,3.3c-0.1,0.1-0.1,0.2-0.2,0.3c-2.2-0.3-4.4-0.7-6.7-1c-0.1,0.3-0.3,0.5-0.4,0.8
				c3.6,3,9.2,4.5,8.5,10.8c-0.6-0.2-1.1-0.5-1.6-0.7c-0.4,0.1-0.9,0.2-1.3,0.3c5.9,5.7,4.8,11.8,1.6,18c0.4,0,0.8,0.1,1.2,0.1
				c1.3-3.7,2.6-7.5,4-11.2c0.1,0,0.3,0.1,0.4,0.1c0,3,0,6,0,9c0.1,0,0.3,0,0.4,0c0.5-1.9,1-3.8,1.5-5.7c0.3,0,0.6,0.1,1,0.1
				c0,1-0.2,2.1,0.1,3c0.3,1,1.2,1.7,1.7,2.5c1.8-5.3-2.5-8.4-3.7-12.6c0.7,0.8,1.4,1.5,2.3,2.6c0.1-0.8,0.2-1.3,0.4-2.8
				c1.7,3.1,2.9,5.5,4.2,7.8c0.2-0.2,0.5-0.3,0.7-0.5c-2.8-8.6-6.4-16.8-12.6-24.2C309.9,223.3,312.4,223.1,314.9,222.9z"/>
		</g>
		<g>
			<path d="M223.9,243c0.2-0.1,0.3-0.8,0.5-1.2c3.5-4.9,6.7-9.9,8.5-15.8c0.4-1.3,2.1-2.2,3-3.3c1.1-1.3,2.5-2.5,3.2-4.1
				c2-4.7,3.6-9.6,5.4-14.3c-7.6,1.1-13.8,5.2-17.9,12.4c2.3-1.6,4.6-3.2,6.9-4.8c0.2,0.3,0.4,0.6,0.7,0.9c-4.1,3.3-8.2,6.6-12.3,10
				c0.2,0.2,0.4,0.5,0.6,0.7c5.2-4,12.5-5.3,15.1-12.6c0.2,4.7-2.2,7.6-5.6,10c-4,2.7-6.6,6.3-7.2,11.3c1.4-0.3,2.5-0.6,3.7-0.9
				c0.3,0.3,0.6,0.6,0.9,0.9c-6.9,5.1-12.3,11.1-12.6,20.9C218.9,248.8,219,244.2,223.9,243z"/>
		</g>
		<g>
			<path d="M271.9,276.5c-1.6-2.2-2.7-3.6-3.7-4.9c-0.2,0.1-0.4,0.2-0.6,0.4c0.7,1.3,1.3,2.6,2,3.8c-0.2,0.2-0.4,0.5-0.5,0.7
				c-1.5-1.1-3-2.2-4.5-3.3c0,0,0,0,0,0c-1.5-0.9-3-1.7-5.1-3c1,1.8,1.6,2.9,2.2,4c-0.2,0.1-0.4,0.3-0.6,0.4
				c-1.2-1.3-2.4-2.7-4.2-4.7c0.9,2.4,1.5,4,2.1,5.7c-4.6-1.2-2.8-6.2-5.8-9.4c0.3,4.1,0.3,7.3-3.2,9.5c0.2-2,0.4-3.7,0.6-5.3
				c-0.2-0.1-0.3-0.1-0.5-0.2c-0.9,1.8-1.8,3.7-2.8,5.5c-0.2-0.1-0.5-0.2-0.7-0.2c0.2-1,0.3-2,0.6-3.6c-1.3,1.6-2,2.9-3,3.8
				c-1.1,1-2.4,1.7-3.6,2.5c8,3.2,16.5,4.3,24.5-0.5c0.9-0.6,3.1-0.8,3.5-0.3c1.9,2.5,3.5,5.2,5.1,8c0.8,1.3,1.2,2.9,1.7,4.3
				c2.5-8.7-1.9-15.7-4.4-23.2C271.1,269.8,271.5,272.8,271.9,276.5z"/>
		</g>
		<g>
			<path d="M264.4,273.2L264.4,273.2C264.5,273.2,264.5,273.2,264.4,273.2C264.4,273.2,264.4,273.2,264.4,273.2z"/>
		</g>
		<g>
			<path d="M184.8,240.2c-0.6,0.1-1.3,0.3-2.9,0.6c3.9-5.3,7.3-10,10.7-14.6c-0.3-0.2-0.5-0.4-0.8-0.5c-2.9,3.4-5.9,6.8-8.8,10.2
				c-0.1-0.1-0.2-0.1-0.2-0.2c0.6-1.2,1.2-2.4,1.8-3.6c-0.1-0.1-0.3-0.2-0.4-0.4c-1.1,0.9-2.2,1.8-3.3,2.8c-0.2-0.2-0.4-0.4-0.6-0.5
				c1.9-2,3.8-4.1,6.3-6.7c-2.9,1.4-4.9,2.3-6.9,3.3c-0.2-0.3-0.3-0.5-0.5-0.8c2.7-2.1,5.3-4.2,8-6.3c-0.1-0.2-0.2-0.4-0.2-0.5
				c-1.5,0.2-2.9,0.3-4.4,0.5c-0.1-0.2-0.1-0.4-0.2-0.6c2.5-1.2,5.1-2.4,8-3.7c-6.3,0.4-10.7,3.5-15.3,8c2.5-0.9,4.3-1.5,5.4-1.9
				c-1.9,2.1-4.6,4.3-5.9,7.1c-1.1,2.5-0.7,5.7-1,8.6c0.8-0.9,1.6-1.8,3.2-3.5c-0.7,2.5-1.1,4.1-1.7,6.4c1.2-1.4,1.7-2,2.7-3.1
				c-0.4,1.5-0.6,2.5-0.9,3.8c1.4-1.1,2.4-2,4-3.3c-0.8,2.1-1.3,3.3-1.8,4.5C181.1,243.7,182.9,242,184.8,240.2z"/>
		</g>
		<g>
			<path d="M324.4,226c0.9,0.3,2.6,1,4.6,1.8c-4-5.1-9.6-8.3-12.9-7.8c2,1.1,4.2,2.4,6.5,3.6c-0.1,0.1-0.1,0.3-0.2,0.4
				c-1.5-0.2-3-0.4-5.2-0.7c3.2,2.8,5.7,5,8.3,7.2c-0.2,0.2-0.4,0.5-0.6,0.7c-2-1-3.9-2.1-6.7-3.6c2.5,2.8,4.3,4.9,6.2,7
				c-0.2,0.2-0.4,0.3-0.6,0.5c-1.1-1-2.1-1.9-3.2-2.9c-0.1,0.1-0.3,0.2-0.4,0.3c0.5,1.3,1.1,2.5,1.9,4.7c-3.3-4.2-6-7.6-8.7-11
				c-0.3,0.2-0.6,0.4-0.8,0.6c3.1,4.7,6.3,9.3,9.7,14.5c-1.5-0.1-2-0.2-2.8-0.2c2,2.2,3.7,4.2,5.4,6.1c0.1-0.1,0.3-0.1,0.4-0.2
				c-0.5-1.4-1-2.8-1.9-5.1c1.7,1.5,2.6,2.4,4,3.6c-0.3-1.4-0.4-2.3-0.7-3.5c0.8,0.7,1.2,1.1,2.1,1.9c-0.4-1.9-0.6-3.2-1-5.5
				c1.3,1.6,2,2.5,2.8,3.4c1.1-2.9-0.5-5.6-0.6-8.3C329.7,230.8,326.2,228.3,324.4,226z"/>
		</g>
		<g>
			<path d="M247.6,210.1c2.2-1.4,4.5-2.9,6.7-4.3c0.2,0.1,0.3,0.2,0.5,0.4c-0.9,1.1-1.6,2.4-2.8,3.3c-2.5,1.9-2.7,3.9-0.6,7.4
				c-1.4-7,6.1-4.3,7.3-8.2c-0.2,1.6-0.8,3.1-1.8,4.2c-2.1,2.4-2.3,3.6-0.5,6.1c0.6-1.6,1.2-3.3,2-5.4c0.4,3.3-0.3,6.7,1.1,8.5
				c3.7,4.7,5,9.9,5.7,15.6c1.9-4.3,2.5-8.8-0.3-12.8c-2.7-3.8-3.4-7.6-2.7-12.1c0.3-1.7-0.4-4-1.5-5.3c-2-2.4-4.6-4.3-6.7-6.2
				c-2.2,2.8-4.6,5.8-6.9,8.7C247.4,210,247.5,210,247.6,210.1z"/>
		</g>
		<g>
			<path d="M253.7,262.2c0.5,1.7,0.8,2.8,1.1,3.8c0.3,0,0.5-0.1,0.8-0.1c-0.2-2.4-0.5-4.9-0.7-7.3c-0.3,0-0.6,0-0.9,0
				c-0.5,0.7-1,1.3-1.1,1.4c-0.4-2.6-0.8-5.5-1.1-8.4c-0.1-0.6,0.2-1.3,0.3-1.9c0.1-1.6,0.3-3.2,0.2-4.8c0-1.5-0.5-3.1-0.3-4.6
				c0.5-3.9-0.9-8,0.7-11.9c0.1-0.3-0.2-0.7-0.4-1.3c-3.2,5.1-5.6,10.2-6.3,15.8c0.7-0.9,1.4-1.8,2.2-2.7c0.2,0.1,0.5,0.3,0.7,0.4
				c-0.7,3-1.4,6-2,8.9c0.6,0.3,0.7,0.3,0.8,0.4c0.4-1.3,0.8-2.6,1.2-3.9c0.4,0.1,0.7,0.1,1.1,0.2c-0.1,1.7-0.2,3.3-0.4,5
				c-0.1,1.3-0.7,2.7-0.3,3.8c1.6,4.8,1.9,9.4-1.9,13.4c-0.3,0.3-0.4,0.9-0.5,1.4C251.2,269.5,251.3,265.1,253.7,262.2z"/>
		</g>
		<g>
			<path d="M240.7,230.3c0.4-3.6,0.1-7.2,0.1-11.6c-1,3.3-2.6,6.2-2.5,9c0,3.5-0.8,6.2-3.3,9.1c0.3-2.6,0.6-4.9,1-7.2
				c-2,3.3-3.2,6.7-5,9.8c-2.5,4.2-3.1,12.4-0.1,17.9c-1.1-8.9,2.3-15.2,7.5-21C239.7,234.7,240.4,232.3,240.7,230.3z"/>
		</g>
		<g>
			<path d="M222.8,209.1c0.2,0.2,0.4,0.4,0.6,0.6c2.6-2,5.2-4,7.8-6c0.1,0.2,0.2,0.3,0.4,0.5c-1.4,1.6-2.7,3.3-4.1,4.9
				c4.3-2.4,7.3-6.5,13.1-5.9c2.7,0.3,5.6-1.6,9.1-2.8c-10.1-2.6-19.4-3.7-28.5,3.5c4.1-1.4,7.4-2.4,11-3.6
				C228.8,203.5,225.8,206.3,222.8,209.1z"/>
		</g>
		<g>
			<path d="M295,248.5c-1.4,6.5-6.9,12-5.1,19.7c1-2.7,1.8-5,2.5-7.2c0.4,0.1,0.8,0.2,1.1,0.3c-0.4,1.8-0.8,3.7-1.1,5.5
				c-0.3,2-0.5,3.9-0.8,5.9c0.3,0,0.5,0.1,0.8,0.1c0.3-0.6,0.5-1.3,0.7-1.6c0.9,2.2,1.8,4.4,2.8,6.6c0.3-0.1,0.6-0.2,1-0.3
				c-0.6-4.8-1.5-9.7-1.8-14.5C294.7,258.2,295,253.4,295,248.5z"/>
		</g>
		<g>
			<path d="M282.4,259.9c-0.5-1.9-1-3.7-1.5-5.6c0.3-0.1,0.7-0.2,1-0.3c1.1,2.2,2.1,4.5,3.2,6.7c1.1-7.4-4.7-12.4-6.8-18.7
				c1.2,10,1.9,20,0.2,30.1c0.3,0.1,0.7,0.2,1,0.3c0.9-2.8,1.8-5.5,2.6-8c0.1,0.2,0.5,0.7,0.8,1.3c0.3-0.1,0.5-0.2,0.8-0.3
				C283.4,263.6,282.9,261.8,282.4,259.9z"/>
		</g>
		<g>
			<path d="M266.8,208.4c-1.4-1.9-2.7-3.8-4.1-5.6c0.2-0.2,0.5-0.3,0.7-0.5c2.5,2.6,4.7,5.7,7.6,7.8c2.9,2.1,6.5,3.3,9.8,4.9
				c0.2-0.2,0.3-0.5,0.5-0.7c-1.6-1-3.2-2.1-4.8-3.1c-1.6-1-3.2-1.8-4.8-2.7c0.1-0.3,0.3-0.5,0.4-0.8c3.5,1.2,7.1,2.3,10.6,3.5
				c-1.3-1.7-2.8-3.6-4.7-4.1c-6-1.5-12-2.6-15.7-8.6C259.9,203.6,260.4,204.5,266.8,208.4z"/>
		</g>
		<g>
			<path d="M219.1,239.3c1.8-3.1,2.9-6.4,2.6-9.7c-2.7,3-5.2,6.1-8.1,8.8c-3.4,3.2-4.5,7-4.6,11.8c1.5-2.7,2.9-5.1,4.2-7.5
				c0.1,0.1,0.2,0.2,0.3,0.2c-0.7,3.1-1.5,6.3-2.1,8.8C213.9,247.7,216.5,243.5,219.1,239.3z"/>
		</g>
		<g>
			<path d="M264.5,273.1C264.5,273.1,264.5,273.2,264.5,273.1C264.4,273.2,264.4,273.2,264.5,273.1
				C264.5,273.2,264.5,273.2,264.5,273.1C264.5,273.2,264.5,273.2,264.5,273.1z"/>
		</g>
		<g>
			<path d="M263.2,266.8c-1.2-2-2.5-4-3.8-6c0.2-0.1,0.5-0.3,0.7-0.4c1,1.2,1.9,2.4,2.9,3.5c0.2-0.2,0.5-0.4,0.7-0.5
				c-2.7-4.9-5.3-9.8-8-14.7c-0.1,2.9,0.3,5.5,0.8,8c0.3,1.6,0.6,3.2,0.9,4.7c0.7,3.8,2.3,6.8,5.7,9c0.7,0.5,0.9,1.8,1.3,2.8
				C266.9,270.5,264.4,268.7,263.2,266.8z"/>
		</g>
		<g>
			<path d="M264.4,273.2C264.5,273.2,264.5,273.2,264.4,273.2C264.5,273.2,264.5,273.2,264.4,273.2
				C264.5,273.2,264.5,273.2,264.4,273.2z"/>
		</g>
		<g>
			<path d="M248.4,217.1c-1.1,3.1-1.5,6-3,8.1c-4.4,6.2-2.3,13.5-4,20.1c-0.1,0.2,0.2,0.5,0.4,0.9c0.9-2.1,1.8-3.9,2.4-5.8
				c0.4-1.4,1-3.2,0.5-4.4c-1-2.8-0.8-5,1-7.4C248.3,225.4,248.9,221.5,248.4,217.1z"/>
		</g>
		<g>
			<path d="M266.7,260.6c0.2-0.1,0.5-0.2,0.7-0.3c-0.3-2.5-1-5.1-0.6-7.4c0.5-2.9-0.6-4.7-2-6.9c-1.3-2-1.9-4.4-2.7-6.7
				c-0.3-1-0.3-2.2-0.5-3.9c-0.6,2-1.1,3.4-1.5,4.7c-0.3,1-0.9,2.4-0.5,3c2.3,3,2.7,6.4,3,9.9c0.1,1.2,0.8,2.4,1.4,4.2
				c-0.2-3.5-0.3-6.3-0.5-9.1c0.4-0.1,0.8-0.1,1.1-0.2C265.4,252.2,266.1,256.4,266.7,260.6z"/>
		</g>
		<g>
			<path d="M303,249.3c-0.9,4.1-1.2,7.3-2.4,10.2c-2.4,5.9,0.1,10.3,3.9,14.5C299.1,266.3,304.8,258.1,303,249.3z"/>
		</g>
		<g>
			<path d="M210.9,261.9c-1.1-3.9-2.1-7.8-3.2-11.7c-2,7.5,3.4,15.5-0.5,23.3C209.8,270,212.3,266.5,210.9,261.9z"/>
		</g>
		<g>
			<path d="M237.3,261.2c0.3-1,0.5-2.2,0.4-3.2c-0.4-4.6-0.9-9.1-1.3-13.7c-0.1-0.1-0.1-0.1-0.2-0.2c-0.3,3.4-1.1,6.8-0.8,10.2
				c0.3,3.7,0.6,7.1-1.5,10.4c-1.4,2.4-1.4,5-0.1,7C234.9,268.3,236.2,264.8,237.3,261.2z"/>
		</g>
		<g>
			<path d="M253.9,306.1C253.9,306.1,253.9,306.1,253.9,306.1l0.1,0.1c-0.4-0.9-0.7-1.9-1.1-2.8c-0.3-0.7-0.7-1.7-1.3-2
				c-0.8-0.5-1.9-0.5-2.9-0.7c0,0.2-0.1,0.9-0.2,1.7c-0.9-0.6-1.6-1-2.3-1.4c-0.3,0.1-0.6,0.2-0.9,0.4c0.5,2.2,1,4.4,1.5,6.5
				c0.3-0.1,0.5-0.1,0.8-0.2c0.4-0.8,0.8-1.5,1.2-2.3C250.7,306.4,251.9,309,253.9,306.1C253.9,306.1,253.9,306.1,253.9,306.1
				C253.9,306.1,253.9,306.1,253.9,306.1z"/>
		</g>
		<g>
			<path d="M258.5,246.5c-2.4-4.7-2.9-9.5-2.3-14.7c0.3-2.7-0.9-5.6-1.5-9.3c-0.4,5.2-0.8,9.4-0.9,13.6
				C253.6,240.3,255.1,243.9,258.5,246.5z"/>
		</g>
		<g>
			<path d="M243,256.3c-1.9,3.5-3.3,7-4.1,10.7c-0.7,3.3-0.7,6.7-1.1,9.9c2.8-1.9,3.7-4.5,3.4-8c-0.2-2.3,0.4-4.6,0.7-6.9
				C242.2,260.1,242.6,258.2,243,256.3z"/>
		</g>
		<g>
			<path d="M266.5,296c0.8,0.9,1.7,1.9,2.9,3.4c-1.4-0.2-2.1-0.4-2.9-0.5c-0.2,1.5-0.4,2.9-0.6,3.9c1.5,0.4,2.8,0.7,4.2,1.1
				c0.1-0.6,0.1-1.1,0.1-1.6c0-0.6,0-1.3,0-1.9c2.3,0,2.8-2.2,1.6-4.5C269.9,296,268.3,296,266.5,296z"/>
		</g>
		<g>
			<path d="M266.4,221.5c1.7,5.6,6,10.5,3.4,17C274.8,233.6,274.4,231.9,266.4,221.5z"/>
		</g>
		<g>
			<path d="M231.7,293.2c-0.6,1.9-0.6,1.9,3.9,8.1c1.1-0.7,2.1-1.4,3.2-2.1c-0.4-0.9-1-2.2-1.5-3.4c-0.7,0.2-1.5,0.4-2.5,0.7
				c0.8-1.5,1.3-2.7,2.3-4.6C234.8,293,233.8,296,231.7,293.2z"/>
		</g>
		<g>
			<path d="M290.4,223.3c4.3,5.2,8.6,10.4,13.2,16C301.7,231.4,296.6,226.8,290.4,223.3z"/>
		</g>
		<g>
			<path d="M215.3,227.8c-2.2,1.7-4.2,3.5-6.5,4.9c-4.3,2.8-5.4,6.8-4.8,11.7C204.7,236.6,211.7,233.4,215.3,227.8z"/>
		</g>
		<g>
			<path d="M229.5,264.3c-1.9,2.9-1.6,5.9-0.4,8.6c1.8-5,3.6-10.1,5.4-15.1C232.5,260,230.9,262.1,229.5,264.3z"/>
		</g>
		<g>
			<path d="M275.9,272.7c0.7,2.1,1.2,4.2,2,6.3c1.4,3.3,2.9,6.5,4.2,9.2c1.4-2.4,0.9-6.3-1.6-9.2C278.8,277,277.5,274.9,275.9,272.7
				z"/>
		</g>
		<g>
			<path d="M274.8,269.3c3.1-6.1-3.5-8.6-3.8-13.2C269.3,261.3,273,264.7,274.8,269.3z"/>
		</g>
		<g>
			<path d="M270.1,244.8c-0.2,0.1-0.5,0.3-0.7,0.4c1.4,2.4,3,4.6,4.2,7.1c1.2,2.5,2.1,5.2,3.1,7.7
				C279.8,252.6,272.3,249.9,270.1,244.8z"/>
		</g>
		<g>
			<path d="M220.7,282.6c2.9-4.2-0.7-7.3-1.6-11.5C215.3,276,221.2,278.8,220.7,282.6z"/>
		</g>
		<g>
			<path d="M240.7,249.1c2.2,4.1,4.3,8.2,6.4,12.2C250.8,254.6,243.5,253,240.7,249.1z"/>
		</g>
		<g>
			<path d="M223.3,250.8c-3.2,6,2.9,10.5,2.3,16.8C228.7,260.8,222.3,256.4,223.3,250.8z"/>
		</g>
		<g>
			<path d="M215.5,268.7c0-5.1,0-10.7,0-16.6C212.3,258.9,212.1,265.2,215.5,268.7z"/>
		</g>
		<g>
			<path d="M203.9,230.9c-4.1,2.7-4.2,4-2.6,12.7C202.2,239.2,203.1,234.8,203.9,230.9z"/>
		</g>
		<g>
			<path d="M229.8,280.7c-1.9,2.7-2.5,5.6-1.2,8.3c1.9-4.6,3.9-9.4,5.9-14.1C232.6,276.8,231.1,278.7,229.8,280.7z"/>
		</g>
		<g>
			<path d="M287.7,284.3c0.9-1.7,1.8-3.4,2.7-5.1c1.1-2,0.9-3.4-0.8-5.5C288.9,277.3,285.2,280.3,287.7,284.3z"/>
		</g>
		<g>
			<path d="M212.7,224c0.3,0.3,0.7,0.6,1,0.9c2.4-5.1,9.5-5.9,10.6-12.7C220.2,216.5,216.5,220.2,212.7,224z"/>
		</g>
		<g>
			<path d="M201.5,247.5c-0.4,1.9-0.9,3.7-1.1,5.5c-0.2,1.8,0,3.6,0,5.4C201.3,254.7,206.2,251.5,201.5,247.5z"/>
		</g>
		<g>
			<path d="M210.3,217.6c2.7-3.5,5.4-7,8.3-10.8c-1.6,0.9-3,1.7-4.4,2.4C212.1,211.7,210.1,214.2,210.3,217.6z"/>
		</g>
		<g>
			<path d="M214.3,209.2C214.3,209.2,214.3,209.2,214.3,209.2L214.3,209.2C214.3,209.2,214.3,209.2,214.3,209.2z"/>
		</g>
		<g>
			<polygon points="214.4,209.1 214.4,209.1 214.4,209.1 			"/>
		</g>
		<g>
			<polygon points="214.3,209.2 214.4,209.1 214.4,209.1 214.4,209.1 			"/>
		</g>
		<g>
			<path d="M257,300.7c-1,1.9-2,3.7-2.9,5.5c0,0-0.1-0.1-0.1-0.1c0,0,0,0,0,0c0.5,0.6,1,1.3,1.7,2.1
				C256,305.6,261.7,304.8,257,300.7z"/>
		</g>
		<g>
			<polygon points="253.9,305.5 253.9,305.5 253.9,305.5 			"/>
		</g>
		<g>
			<path d="M278.4,203.7c0.9,0.5,1.6,0.9,2.3,1.2c0.2-0.4,0.3-0.7,0.5-1.1c-2.8-1.2-5.7-2.4-8.5-3.6c-0.1,0.3-0.3,0.6-0.4,0.8
				c2.1,1.7,4.1,3.3,6.9,5.6C278.8,205.1,278.6,204.6,278.4,203.7z"/>
		</g>
		<g>
			<path d="M297.5,248.8c0,4.8,0,9.5,0,14.5C300.7,258.2,299.1,253.6,297.5,248.8z"/>
		</g>
		<g>
			<path d="M242.3,296.9c-0.6,1.8-1,3.3-1.5,4.8c0.3-0.1,0.6-0.2,1-0.3c0.7,0.7,1.4,1.4,2.1,2.2
				C244.9,299.1,244.9,299.1,242.3,296.9z"/>
		</g>
		<g>
			<path d="M261.6,301.2c-0.6,1.8-1,3.3-1.5,4.8c0.3-0.1,0.6-0.2,1-0.3c0.7,0.7,1.4,1.4,2.1,2.2
				C264.2,303.4,264.2,303.4,261.6,301.2z"/>
		</g>
		<g>
			<path d="M293.9,233.2c-0.3,0.3-0.7,0.5-1,0.8c2.5,3.4,5,6.7,7.5,10.1c0.3-0.2,0.5-0.4,0.8-0.6C298.8,240,296.3,236.6,293.9,233.2
				z"/>
		</g>
		<g>
			<path d="M286.6,214.1c2.1,1.9,4.8,4.4,6.3,5.7C292.4,217.7,289.8,215,286.6,214.1z"/>
		</g>
		<g>
			<path d="M226.4,283.9c0.3-0.1,0.6-0.1,0.9-0.2c-0.7-3.7-1.4-7.3-2.1-11.2C222,276.9,226.5,280.2,226.4,283.9z"/>
		</g>
		<g>
			<path d="M275.9,232.1c-0.7,3.8-1.4,7.3-2.1,10.8c0.3,0.1,0.6,0.1,1,0.2C274.8,239.4,278.5,236.3,275.9,232.1z"/>
		</g>
		<g>
			<path d="M283.6,278.8c3.6-7.4,3.6-7.4,2.2-10C285,272.1,284.3,275.4,283.6,278.8z"/>
		</g>
		<g>
			<path d="M259.2,225.7c-0.5,3.7-1.1,7.3-1.6,11c0.3,0,0.6,0,0.9,0C258.4,233,262.5,229.6,259.2,225.7z"/>
		</g>
		<g>
			<path d="M206,262.2c0-2.7,0-5.5,0-8.4C202.1,256.6,205.1,259.4,206,262.2z"/>
		</g>
		<g>
			<path d="M223.5,270.7c-1.6-3.8-3.2-7.6-4.8-11.6C218.1,263.9,220.4,267.5,223.5,270.7z"/>
		</g>
		<g>
			<path d="M300.8,279.8c-1.1-4.1-2.1-7.8-3.1-11.7C296.7,272.5,297.7,276.2,300.8,279.8z"/>
		</g>
		<g>
			<path d="M305.3,243.3c0,3.1,0,5.8,0,8.5C305.8,249.1,309.1,246.4,305.3,243.3z"/>
		</g>
		<g>
			<path d="M210.6,278.8c3.1-3.5,3.8-7,2.2-10C212.1,271.9,211.3,275.3,210.6,278.8z"/>
		</g>
		<g>
			<path d="M300.6,248.2c-2-3.2-3.9-6.4-5.9-9.6c-0.2,0.1-0.5,0.3-0.7,0.4c1.9,3.2,3.9,6.4,5.8,9.6
				C300.1,248.5,300.3,248.3,300.6,248.2z"/>
		</g>
		<g>
			<path d="M232,286.9c-0.3,1.9-0.7,3.9-1.1,6.4C233.8,291.3,234.4,288.9,232,286.9z"/>
		</g>
		<g>
			<path d="M272.3,290.6c-2,2.7,1.3,3.7,1.3,5.8c0.4-0.1,0.8-0.2,1.2-0.3c-0.4-1.9-0.7-3.9-1.1-5.8
				C273.3,290.3,272.8,290.4,272.3,290.6z"/>
		</g>
		<g>
			<path d="M201.9,276.5c0.3,0.2,0.6,0.3,0.9,0.5c1.3-2.2,2.6-4.4,3.9-6.6c-0.3-0.2-0.7-0.4-1-0.6
				C204.4,272.1,203.1,274.3,201.9,276.5z"/>
		</g>
		<g>
			<path d="M303.9,270c1.4,2.2,2.7,4.4,4.1,6.6c0.3-0.1,0.5-0.3,0.8-0.4c-1.2-2.2-2.4-4.5-3.7-6.7
				C304.7,269.7,304.3,269.8,303.9,270z"/>
		</g>
		<g>
			<g>
				<path d="M268.8,292.3c-0.1,2.2-1.7,3.1-4.6,2.3c-2.4-0.6-4.6-1.4-7-1.9c-4.4-0.9-8.7-0.2-12.9,1.2c-0.9,0.3-1.9,0.7-2.8,0.8
					c-2.6,0.4-4-0.6-3.7-2.8c0.5-3.7,2.2-7.2,5.2-10c0.7-0.7,2.5-1.1,3.6-0.8c4.5,1,8.8,1,13.3,0c1-0.2,2.6,0.1,3.4,0.7
					C265.8,283.7,268.8,289.7,268.8,292.3z M244.8,283.7c1.2,1.7,2.5,3.4,3.9,5.2C249.9,286.5,248.4,284.2,244.8,283.7z M257.7,289
					c1.5-2.1,2.7-3.8,3.9-5.5C257.9,284.6,256.7,286.3,257.7,289z"/>
			</g>
			<g>
				<path d="M248,297.1c2-0.5,3.9-0.9,5.8-1.4c0-0.1,0-0.2,0-0.3c-2.6,0.1-5.3,0.3-7.8,0.4c3.2-2.8,11.6-2.5,16.1,0.6
					C258.1,300.5,249.8,301.9,248,297.1z"/>
			</g>
		</g>
	</g>
	<g>
		<path d="M157.6,348l-13.7-22.9V348h-4v-31h4l13.7,22.8V317h4.1v31H157.6z"/>
		<path d="M186.5,339.8c0,6.5-4.9,8.7-9.3,8.7s-9.4-2.2-9.4-8.7v-14.3c0-6.2,3.7-9.3,9.4-9.3c5.9,0,9.2,3.6,9.2,9.3V339.8z
			 M182.5,326.4c0-3.7-1.3-5.9-5.3-5.9c-3.9,0-5.3,2.1-5.3,5.9v12.8c0,3.3,2,5.2,5.3,5.2c3.1,0,5.3-1.9,5.3-5.3V326.4z"/>
		<path d="M218.6,348l-3.2-9.5c-0.2,0-0.4,0.1-1,0.1h-6.9v9.4h-4v-31h10.6c6,0,8.6,4.7,8.6,10.2c0,3.1,0,7.4-3.6,10l3.6,10.8H218.6z
			 M213.5,334.7c5,0,5-4.8,5-7.5c0-4.9-2.3-6.2-5.6-6.2h-5.4v13.7H213.5z"/>
		<path d="M228.6,348v-31h14.8v4h-10.8v8.7h6.9l-1.2,3.9h-5.7v10.8h10.7v3.6H228.6z"/>
		<path d="M262.8,348l-0.4-0.9c-1.2,0.8-2.7,1.3-4.8,1.3c-4.7,0-9.3-2.5-9.3-8.8v-13.9c0-4.3,1.5-6.6,3.9-8c2.9-1.7,7.6-1.4,11,0.4
			l-1.2,3.5c-1.6-0.6-2.8-0.8-4.3-0.8c-2.5,0-5.4,0.6-5.4,4.7v14.4c0,3.4,2.2,4.7,5.3,4.7c2.6,0,4.9-1.3,4.9-4.7v-1.2h-2.7l-1.3-3.9
			h8V348H262.8z"/>
		<path d="M286.4,316.9h4v22.8c0,6.5-4.9,8.6-9.3,8.6s-9.4-2-9.4-8.6v-22.8h4v21.7c0,3.7,1.6,5.8,5.3,5.8c3.7,0,5.3-2.1,5.3-5.8
			V316.9z"/>
		<path d="M297.2,348v-31h4v27.3h12v3.7H297.2z"/>
		<path d="M332.2,348l-2.4-9.1h-8.2l-2.3,9.1h-4.5l8.2-31h5.3l8.6,31H332.2z M325.6,323.6l-3,11.1h6.2L325.6,323.6z"/>
		<path d="M356,348l-3.2-9.5c-0.2,0-0.4,0.1-1,0.1h-6.9v9.4h-4v-31h10.6c6,0,8.6,4.7,8.6,10.2c0,3.1,0,7.4-3.6,10l3.6,10.8H356z
			 M350.9,334.7c5,0,5-4.8,5-7.5c0-4.9-2.3-6.2-5.6-6.2h-5.4v13.7H350.9z"/>
	</g>
</g>
</svg>
