<?xml version="1.0" encoding="utf-8"?>
<!-- Generator: Adobe Illustrator 23.0.0, SVG Export Plug-In . SVG Version: 6.00 Build 0)  -->
<svg version="1.1" id="Layer_1" xmlns="http://www.w3.org/2000/svg" xmlns:xlink="http://www.w3.org/1999/xlink" x="0px" y="0px"
	 viewBox="0 0 500 500" style="enable-background:new 0 0 500 500;" xml:space="preserve">
<style type="text/css">
	.st0{fill:none;}
	.st1{fill:#3A5569;}
</style>
<path class="st0" d="M249.08,242.7c-0.25-0.04-0.85,0.38-0.87,0.58c-0.02,0.2,0.53,0.62,0.82,0.63c0.29,0.01,0.93-0.44,0.85-0.62
	C249.74,242.95,249.44,242.76,249.08,242.7z M249.04,243.58c-0.16-0.05-0.26-0.14-0.24-0.31c0.02-0.15,0.12-0.25,0.26-0.23
	c0.16,0.02,0.26,0.13,0.24,0.31C249.29,243.49,249.19,243.56,249.04,243.58z"/>
<path class="st0" d="M251.12,241.69c0.14,0.07,0.21,0.15,0.25,0.24c0.16,0.15,0.23,0.28,0.23,0.28s0.2-0.25,0.25-0.22
	c-0.07-0.28-0.27-0.46-0.53-0.58c-0.13,0-0.26,0.04-0.39,0.1C250.98,241.56,251.04,241.65,251.12,241.69z"/>
<path class="st0" d="M250.64,241.23c-1.1-0.12-2.54,0.24-2.54,0.24v0.23c1.24-0.35,2.04-0.3,2.57-0.14
	c0.07-0.01,0.15-0.03,0.22-0.07C250.83,241.38,250.75,241.27,250.64,241.23z"/>
<g>
	<g>
		<path class="st1" d="M233.99,309.09c0.09-0.15,0.18-0.31,0.28-0.46c3.1-5.23,5.66-10.67,8.19-16.19c0.12-0.27,0.21-0.51,0.48-0.65
			c-0.01-0.25-0.02-0.5-0.04-0.75c-2.36,0.39-4.73,0.95-7.05-0.23c-1.02,0-0.99,0.93-1.33,1.52c-0.43,0.73-0.47,1.63-1.08,2.32
			c-0.12,0.7-0.31,1.37-0.77,1.93c-0.93,2.8-2.43,5.3-4.13,7.69c-3.38,4.75-7.01,18.3-14.8,17.46c-1.52-0.16-3.04-0.34-4.55-0.52
			c-1.46,0.02-2.91,0.05-4.32,0.51c0.06,0.16,0.1,0.33,0.19,0.47c0.32,0.48,1.24,0.77,0.87,1.43c-0.27,0.48-1.09,0.42-1.72,0.43
			c-2.21,0.02-4.36,0.51-6.52,0.92c-0.94,0.4-1.9,0.74-2.92,0.88c-0.9,0.7-2.15,0.81-3.05,1.74c0.71,0.08,1.27,0.14,1.82,0.2
			c1.55-0.06,3.1-0.12,4.65-0.18c4.55-0.29,9.11-0.58,13.66-0.87c0.96-0.4,1.97-0.31,2.97-0.27c0.74-0.36,1.55-0.26,2.32-0.37
			c2.77-0.39,2.76-0.38,3.07,2.33c0.13,1.17,0.28,2.35,0.41,3.52c0.11,0,0.23,0,0.34,0c0.06-0.1,0.13-0.19,0.17-0.3
			c1.58-4.74,4.47-7.69,9.85-7.29c0.05,0,0.11-0.17,0.19-0.29c-0.89-1.29-2.14-2.23-3.42-3.04c-1.09-0.68-0.85-1.15-0.28-1.98
			C229.7,315.78,231.95,312.49,233.99,309.09z"/>
		<path class="st1" d="M313.11,204.09c-0.59-0.76-1.23-1.5-1.01-2.58c-0.15-1.01,0.1-1.95,0.73-2.72c2.16-2.61,2.64-5.46,1.43-8.62
			c-0.48-0.75-0.95-1.5-1.42-2.24c-1.28-0.91-2.52-1.92-4.15-2.16c-0.45-0.07-0.73-0.34-0.62-0.82c0.64-2.64-0.51-4.81-1.8-6.95
			c-0.11,0-0.21-0.04-0.27-0.14c-0.45-0.32-0.91-0.63-1.36-0.95c-0.3,0.01-0.56-0.06-0.71-0.35c-2.1-0.72-4.12-0.31-6.14,0.39
			c-0.49,0.29-0.8,0.84-1.41,0.95c-0.07,0.07-0.15,0.1-0.24,0.07c-0.77,1.31-1.38,1-2.03-0.14c-1.17-2.06-2.98-2.96-5.36-2.99
			c-1.4-0.02-2.7,0.28-4,0.65c-0.05,0.09-0.13,0.12-0.23,0.09c-1.08,0.69-2.16,1.39-3.24,2.08c-1.8,1.71-3.61,3.43-5.41,5.14
			c-0.05,0.22-0.05,0.48-0.17,0.65c-2.9,3.95-4.6,8.39-5.49,13.19c-0.28,1.48-0.3,2.66,1.54,2.96c1.49,0.89,3.37,0.87,4.76,2
			c2.34,1.01,4.55,2.23,6.52,3.86c2.45,1.18,4.5,2.9,6.48,4.72c1.05,0.93,2.52,1.38,3.14,2.79c1.93,1.25,3.73,2.64,5.09,4.52
			c0.92,0.66,1.33,1.51,0.97,2.64c-0.46,1.9-1.61,3.26-3.35,4.05c-1.11,0.51-1.54,1.05-0.61,2.1c0.34,0.38,0.54,0.85,0.52,1.39
			c0.57,2.04-0.67,2.92-2.29,3.48c-1.36,0.47-2,1.03-1.49,2.7c0.6,1.93-0.9,3.69-3.3,4.33c-0.45,0.31-0.93,0.17-1.41,0.12
			c-0.45-0.01-0.91-0.02-1.36-0.02c-0.46,0.92-0.2,2.18-1.31,2.8c-1.21,1.57-2.89,1.82-4.71,1.65c-0.62-0.06-1.23-0.18-1.84-0.27
			c-0.98,0.22-0.85,1.71-2.01,1.73c-0.71,0.91-1.75,0.89-2.64,0.64c-2.05-0.59-3.89-0.21-5.7,0.76c-0.33,0.18-0.75,0.2-1.13,0.29
			c-2.28,0.61-4.49,0.09-6.7-0.39c-0.58-0.14-1.15-0.28-1.73-0.42c-5.4-1.44-10.46-3.59-14.78-7.25c-2.24-1.59-4.33-3.33-5.86-5.65
			c-1.89-1.59-2.96-3.79-4.28-5.8c-0.43-0.83-0.86-1.66-1.29-2.5c0.11-0.06,0.21-0.12,0.32-0.18c0.51,0.88,1.02,1.75,1.53,2.63
			c1.36,1.72,2.73,3.44,4.09,5.15c2.3,1.94,4.59,3.89,6.89,5.83c3.76,2,7.53,3.96,11.66,5.1c0.87,0.24,1.75,0.49,2.62,0.73
			c0.9,0.14,1.81,0.22,2.7,0.43c2.39,0.57,4.65,0.34,6.76-0.96c1.43-0.89,2.89-0.89,4.39-0.24c0.78,0.51,1.37,0.44,1.97-0.39
			c0.84-1.14,1.82-2.18,3.48-1.89c0.97,0.01,1.94,0.08,2.9,0.01c1.17-0.09,1.83-0.69,1.89-1.97c0.13-2.62,0.51-2.89,3.07-2.46
			c2.57,0.43,3.22-0.18,2.85-2.69c-0.24-1.67,0.48-3.05,2.31-3.73c1.56-0.57,2.07-1.06,0.83-2.55c-1-1.2-0.87-2.53,0.54-3.51
			c1.08-0.46,2.07-1.09,2.98-1.82c1.47-1.17,1.47-1.86,0.15-3.18c-1.37-1.35-2.97-2.46-4.17-3.99c-1.45-0.39-2.02-1.79-3.05-2.66
			c-1.96-1.57-3.92-3.13-5.88-4.7c-4.16-3.33-10.88-7.8-16.45-7.9c-1.36-0.03-2.73-0.05-4.09-0.08c-1.26,0.01-2.51,0.02-3.77,0.02
			c-1.35,0.07-2.99,0.64-3.98,0.07c-1.06-0.6-0.11-2.39-0.39-3.64c-0.24-1.04-0.3-2.13-0.43-3.19c-1.44-3.9-3.38-7.58-5.2-11.31
			c-1.63-2.87-3.27-5.73-3.68-9.09c-0.58-1.35-0.52-2.77-0.52-4.19c0-2.41,1.19-4.47,1.87-6.69c-1.18-0.11-2.17,0.82-3.37,0.6
			c-1.19,0.15-2.38,0.24-3.52-0.29c-3.74-0.87-6.24-3.13-7.54-6.73c-1.53-4.43-0.84-8.49,2.04-12.18c0.63-1.42,2.14-2.13,2.96-3.48
			c-1.32-0.52-2.55-0.1-3.77-0.11c-0.43,0.09-0.86,0.19-1.29,0.28c-2.93,0.57-5.31,2.27-7.81,3.73c-0.64,0.71-1.34,1.38-1.91,2.15
			c-3.52,4.72-7.65,8.93-11.34,13.52c-0.27,0.82-0.86,1.4-1.47,1.96c-1.44,2.17-2.75,4.43-4.4,6.46c-1.75,2.95-3.51,5.91-5.26,8.86
			c-1.7,3.3-3.4,6.6-5.1,9.9c-7.58,14.72-10.54,31.98-4.58,47.7c1.24,2.9,3.1,5.44,4.6,8.19c1.66,1.96,3.33,3.92,4.99,5.87
			c1.75,1.62,3.5,3.25,5.26,4.87c0.2-0.06,0.29,0.05,0.33,0.23c3.06,2.24,6.31,4.19,9.5,6.22c0.34,0.54,1.12,0.1,1.46,0.66
			c1.33,0.46,2.5,1.32,4,1.39c2.89,0.13,5.78,0.44,8.68,0.09c1.28-0.15,2.57-0.27,4.03,0.07c-3.41,1.04-6.75,1.37-10.11,1.44
			c-1.4,0.03-1.49,0.52-1.04,1.61c0.82,2,1.59,4.01,2.39,6.02c1.48,3.42,2.95,6.84,4.43,10.26c1.82,2.67,3.64,5.33,5.46,8
			c1.14,0.97,2.34,1.85,3.78,2.34c8.12,2.79,17.39-9.05,21.08-14.81c1.45-2.27,2.97-4.48,4.88-6.4c0.08-0.24,0.17-0.49,0.25-0.73
			c-2.3-0.13-4.58-0.3-6.69-1.35c-0.87-0.31-1.74-0.61-2.61-0.92c0.95-0.07,1.81,0.12,2.61,0.58c1.7,0.37,3.42,0.38,5.15,0.3
			c1.49-0.32,2.98-0.65,4.46-0.97c5.85-2.46,10.73-6.09,14.26-11.49c3.35-5.12,7.3-9.74,12.03-13.65c1.54-1.49,2.95-3.15,4.88-4.18
			c0.87-1.11,1.62-2.31,2.69-3.26c1.91-1.69,3.31-3.72,4.04-6.21c0.29-0.96,0.42-2.02,1.18-2.74c0.02-0.21,0.11-0.36,0.34-0.36
			c0-0.27,0.09-0.48,0.38-0.55c0.42-0.4,0.83-0.8,1.25-1.2c0.2-0.49,0.55-0.77,1.08-0.82c0.21-1.07,1.42-1.65,1.38-2.84
			c-0.58-3.09,0.29-5.76,2.36-8.07c1.28-1.95,2.12-3.98,1.25-6.35C313.24,204.35,313.19,204.26,313.11,204.09z"/>
		<path class="st1" d="M305.66,224.23c-0.02,0-0.02,0.01-0.04,0.01c0,0.01,0,0.01,0,0.02L305.66,224.23z"/>
		<path class="st1" d="M265.13,312.09c-0.9-0.56-1.73-1.19-2.33-2.08c-2.51-1.95-3.28-4.74-3.45-7.69c-0.34-6-0.1-12.04-1.44-17.96
			c-0.38-0.94-0.8-1.87-1.12-2.83c-0.43-1.29-0.96-1.41-1.75-0.28c-0.22,0.32-0.55,0.56-0.83,0.83c-0.43,0.53-0.77,1.17-1.3,1.57
			c-1.68,1.27-1.94,2.65-1.23,4.69c1.5,4.27,1.51,8.8,1.73,13.26c0.18,3.64,0.05,7.28-0.14,10.92c-0.08,1.52-0.64,2.37-2.23,2.35
			c-1.79,0.37-3.58,0.3-5.36-0.03c-2.45,0.13-4.8-0.74-7.23-0.8c-1.24,0.01-2.44,0.22-3.54,0.84c-0.06,0.18-0.12,0.37-0.18,0.55
			c0.91,0.2,2-0.43,2.74,0.58c2.18,0.12,4.42-0.13,6.6,1.05c-2.79,0.83-4.84,2.47-6.48,4.68c0.86,0.65,1.68-0.21,2.53-0.06
			c0.6-0.13,1.2-0.23,1.79-0.39c3.5-0.95,6.98-1.98,10.5-2.84c1.82-0.44,3.68-0.6,5.51,0.26c0.84,0.39,0.98,1.56,2.09,1.65
			c0.09-1.5,0.16-2.98,0.26-4.45c0.2-2.89,0.21-2.89,2.87-1.4c0.35,0.28,0.7,0.55,1.06,0.83c0.45,0.19,1.02-0.05,1.4,0.38
			c0.82,0.29,1.67,0.51,2.36,1.08c0.68-0.94-0.12-1.61-0.55-2.22C266.76,313.67,265.9,312.92,265.13,312.09z"/>
		<path class="st1" d="M222.42,138.96c0.47,0.4,0.87,0.87,1.3,1.31c1.98-0.06,3.6-1.26,5.45-1.75c0.88-0.41,1.78-0.7,2.76-0.69
			c1.73-0.38,3.47-0.77,5.26-0.66c2.76-0.61,5.52-0.44,8.29,0c0.26-0.04,0.46,0,0.64,0.07c0.85,0.09,1.64,0.27,2.3,0.57
			c0.5-0.02,0.99,0.12,1.45,0.52c1.05,0.91,2.42,1.17,3.56,1.83c1.47,0.84,2.33,0.47,3.13-0.77c0.66-2.82,0.49-3.15-2.29-4.47
			c-0.8-0.38-1.37-0.9-1.46-1.83c-0.5-0.17-0.75-0.56-0.67-1.05c0.14-0.9-0.48-1.29-1.04-1.74c-0.66-0.13-1.32-0.44-2-0.27
			c-3.21,0.82-5.15-0.81-6.59-3.4c-0.11-0.16-0.21-0.32-0.32-0.48c0,0-0.02,0.11-0.02,0.11c-0.83-0.53-1.76-0.72-2.72-0.79
			c-2.09,0.38-2.71,2.24-3.71,3.71c0,0-0.1,0.08-0.1,0.08c-0.11,0.3-0.35,0.27-0.59,0.23c-0.24-0.03-0.49-0.05-0.73-0.08
			c-0.1-0.04-0.2-0.08-0.3-0.12c-1.91-0.66-3.8-1.39-5.85-1.43c-0.98,0.22-1.76,0.68-2.02,1.74c0.14,1.13,0.18,2.22-1.06,2.83
			c-0.12,0.05-0.23,0.1-0.35,0.16c-1,0.31-2.02,0.09-3.04,0.12c-1.24,0.04-1.81,0.49-1.61,1.89
			C220.34,136.4,221.06,137.82,222.42,138.96z"/>
		<path class="st1" d="M242.89,138.11c-1.56-0.1-3.03,0.26-4.48,0.78c-2.07,1.11-3.5,2.92-5.05,4.6c-1.66,2.95-1.98,6.16-1.82,9.47
			c0.69,1.66,1.55,3.2,2.78,4.54c1.57,1.7,3.62,2.41,5.76,2.99c0.93-0.01,1.87-0.02,2.8-0.02c2.04-0.63,3.79-1.7,5.12-3.4
			c0.17-0.47,0.32-0.96,0.52-1.41c1.43-3.17,1.21-3.95-1.62-5.74c-0.13-0.09-0.22-0.25-0.33-0.38c-1.49-1.49-1.49-3.5,0.02-5.86
			c0.38-0.88,0.71-1.76,1.44-2.47c0.54-0.53,0.76-1.06,0.56-1.55c-0.48-0.44-1.24-0.91-2.36-1.25
			C245.12,138.59,244,137.95,242.89,138.11z M240.62,146.44c-1-0.03-2.87-1.46-2.81-2.15c0.06-0.68,2.11-2.13,2.97-1.99
			c1.23,0.2,2.26,0.86,2.75,2.01C243.8,144.94,241.62,146.47,240.62,146.44z"/>
		<path class="st1" d="M247.19,144.33c-0.46,1.59-1.25,3.18,0.09,4.74c1.76,2.02,7.92-0.25,10.32-0.28
			c0.74-0.01,1.48-0.07,2.21-0.01c0.54,0.04,1.19,0.39,1.48-0.26c0.24-0.54-0.13-1.14-0.46-1.57c-1.46-1.89-3.14-3.55-5.32-4.66
			C250.53,139.76,250.38,139.78,247.19,144.33z"/>
		<path class="st1" d="M240.73,143.44c-0.47-0.05-0.83,0.29-0.89,0.8c-0.08,0.61,0.28,0.92,0.81,1.08c0.5-0.06,0.82-0.31,0.89-0.83
			C241.62,143.88,241.27,143.49,240.73,143.44z"/>
	</g>
</g>
</svg>
