<?xml version="1.0" standalone="no"?>
<!DOCTYPE svg PUBLIC "-//W3C//DTD SVG 20010904//EN"
 "http://www.w3.org/TR/2001/REC-SVG-20010904/DTD/svg10.dtd">
<svg version="1.0" xmlns="http://www.w3.org/2000/svg"
 width="700.000000pt" height="700.000000pt" viewBox="0 0 700.000000 700.000000"
 preserveAspectRatio="xMidYMid meet">
<metadata>
Created by potrace 1.11, written by Peter Selinger 2001-2013
</metadata>
<g transform="translate(0.000000,700.000000) scale(0.100000,-0.100000)"
fill="#000000" stroke="none">
<path d="M3076 6978 c-13 -11 -38 -41 -55 -68 -34 -55 -31 -55 -132 -23 -90
29 -139 35 -170 23 -30 -13 -52 -54 -44 -80 3 -11 -4 -29 -18 -45 -21 -25 -31
-28 -95 -31 -40 -2 -77 -6 -83 -10 -13 -7 -7 -86 9 -125 6 -15 31 -48 57 -74
54 -54 62 -55 182 -5 40 16 99 34 130 40 32 5 69 12 82 15 177 34 486 14 546
-35 26 -22 136 -70 159 -70 34 0 56 22 66 64 12 55 -2 81 -61 114 -50 29 -87
74 -95 116 -2 12 -14 31 -28 42 -21 19 -33 21 -94 17 -54 -3 -78 0 -104 13
-35 18 -84 68 -93 96 -7 19 -79 49 -112 46 -12 -1 -33 -10 -47 -20z"/>
<path d="M3117 6554 c-56 -18 -177 -126 -207 -184 -31 -62 -51 -146 -53 -227
-1 -90 17 -137 85 -217 116 -135 327 -150 440 -31 36 38 78 134 78 177 0 27
-34 71 -72 95 -31 18 -58 67 -58 102 0 38 46 145 84 196 30 41 27 55 -16 77
-52 27 -213 34 -281 12z m104 -147 c19 -12 35 -32 37 -44 3 -23 -36 -60 -76
-70 -32 -8 -85 20 -103 54 -12 22 -11 26 11 44 55 44 84 48 131 16z"/>
<path d="M3144 6375 c-9 -23 3 -45 25 -45 23 0 35 28 20 46 -15 18 -38 18 -45
-1z"/>
<path d="M2815 6535 c-88 -26 -225 -103 -267 -150 -16 -19 -59 -72 -96 -117
-37 -46 -79 -97 -94 -113 -91 -103 -221 -260 -264 -320 -115 -160 -274 -404
-274 -421 0 -3 -15 -29 -34 -57 -39 -60 -251 -475 -285 -557 -12 -30 -26 -64
-31 -75 -34 -79 -102 -308 -114 -389 -4 -21 -8 -48 -11 -60 -15 -67 -28 -219
-28 -336 -1 -211 49 -468 119 -617 79 -166 230 -374 363 -497 99 -94 128 -118
171 -148 25 -18 46 -35 48 -40 2 -4 8 -8 12 -8 5 0 61 -34 125 -75 63 -41 117
-75 120 -75 2 0 28 -11 57 -25 80 -38 136 -44 340 -41 103 2 185 0 183 -4 -8
-12 -180 -40 -269 -44 -55 -2 -83 -7 -89 -17 -8 -12 53 -185 108 -304 7 -16
38 -88 69 -158 63 -148 206 -369 273 -424 150 -124 340 -79 553 129 101 98
154 165 265 328 43 63 98 139 123 168 25 29 43 54 41 56 -2 1 -36 8 -76 14
-79 13 -203 52 -203 64 0 4 12 3 28 -3 39 -16 59 -19 132 -20 103 -2 198 19
294 67 165 83 296 193 391 329 79 113 157 217 195 260 85 96 273 275 351 336
24 19 50 42 57 51 7 9 34 40 60 69 26 28 60 66 75 83 37 40 60 86 87 168 17
54 32 77 84 129 90 92 100 109 97 179 -3 82 13 133 70 220 27 41 54 93 60 115
14 50 4 109 -23 148 -33 47 -26 115 19 183 20 30 41 78 48 106 30 133 -54 273
-185 308 l-36 10 0 67 c0 99 -39 176 -114 221 -39 23 -66 32 -98 32 -82 0
-156 -27 -210 -77 -21 -20 -27 -17 -70 40 -47 63 -103 87 -192 82 -105 -6
-176 -46 -322 -184 -141 -133 -249 -352 -282 -571 -7 -50 13 -74 81 -95 78
-23 244 -107 320 -161 34 -24 65 -44 70 -44 16 -1 269 -200 290 -229 6 -9 35
-34 65 -55 29 -22 74 -63 100 -92 42 -47 46 -57 42 -91 -7 -53 -46 -108 -103
-144 -53 -32 -54 -37 -28 -86 27 -51 22 -97 -14 -127 -17 -14 -37 -26 -45 -26
-8 0 -26 -11 -39 -24 -20 -20 -23 -30 -18 -78 4 -48 2 -58 -21 -85 -30 -35
-97 -63 -145 -60 -32 2 -36 -1 -50 -37 -32 -83 -93 -116 -202 -110 -59 4 -69
2 -78 -15 -6 -11 -27 -29 -47 -41 -29 -19 -43 -21 -82 -15 -71 11 -110 6 -185
-20 -101 -37 -172 -33 -367 19 -36 10 -74 21 -85 26 -184 72 -267 119 -395
220 -102 80 -101 79 -186 176 -86 97 -190 261 -182 286 2 6 12 -4 21 -24 28
-59 172 -233 239 -288 35 -29 65 -56 68 -59 23 -30 146 -109 240 -155 136 -65
262 -108 389 -131 118 -22 190 -17 265 19 60 28 95 30 177 11 21 -6 33 1 66
35 l40 42 91 2 c111 2 127 13 134 88 3 27 12 54 19 60 8 5 42 6 77 3 89 -8
102 1 102 76 0 77 18 111 74 137 56 27 61 35 42 69 -46 85 -40 110 39 156 67
39 105 76 105 103 0 14 -30 48 -92 105 -50 46 -116 107 -146 136 -30 28 -68
62 -84 75 -17 13 -76 59 -132 103 -127 101 -318 225 -347 225 -5 0 -17 4 -27
10 -71 39 -114 45 -358 46 -133 1 -246 4 -252 8 -7 4 -11 31 -10 64 3 142 -17
201 -188 540 -111 220 -135 293 -140 426 -3 63 2 92 22 150 39 109 38 106 21
106 -9 0 -28 -5 -43 -10 -14 -6 -52 -11 -83 -11 -146 -2 -287 92 -341 228 -35
88 -39 206 -10 286 25 70 84 162 136 213 20 18 33 38 30 43 -10 15 -115 8
-191 -14z"/>
<path d="M3451 6443 c-82 -86 -107 -191 -57 -241 32 -32 86 -37 196 -15 59 11
168 20 272 23 10 0 1 39 -16 65 -55 84 -234 203 -317 210 -29 3 -40 -4 -78
-42z"/>
<path d="M3606 1665 c-67 -75 -76 -90 -76 -124 0 -22 5 -52 11 -68 19 -49 40
-166 47 -253 9 -118 9 -559 -1 -592 -4 -15 -17 -33 -29 -39 -39 -21 -312 -14
-395 10 -59 17 -193 -3 -193 -29 0 -5 15 -10 33 -10 18 0 37 -4 43 -9 5 -5 48
-11 97 -15 48 -3 97 -11 109 -17 21 -11 19 -13 -28 -38 -66 -34 -109 -68 -141
-110 l-26 -34 57 7 c31 4 89 17 129 28 268 74 368 98 407 98 57 0 105 -18 134
-51 15 -17 30 -28 33 -26 2 3 7 43 9 89 3 45 7 92 9 103 2 11 4 23 4 28 2 16
46 5 88 -23 24 -16 51 -30 59 -30 8 0 27 -6 42 -14 53 -26 72 -29 72 -9 0 19
-79 117 -115 142 -50 36 -124 121 -149 169 -14 28 -24 52 -22 52 3 0 1 14 -4
31 -5 17 -12 101 -15 187 -13 360 -27 462 -76 570 -15 34 -30 62 -33 62 -2 0
-39 -38 -80 -85z"/>
<path d="M2986 1386 c-9 -6 -29 -45 -46 -86 -17 -41 -35 -84 -40 -95 -52 -117
-76 -161 -120 -230 -29 -44 -90 -153 -137 -244 -91 -179 -153 -273 -210 -320
-76 -63 -124 -73 -260 -55 -74 9 -172 8 -202 -4 l-24 -9 22 -22 c32 -32 20
-51 -31 -52 -24 0 -52 -2 -63 -4 -11 -2 -40 -6 -65 -10 -25 -3 -70 -13 -100
-22 -30 -9 -61 -17 -68 -19 -30 -6 -131 -58 -126 -65 5 -8 272 -4 344 6 19 2
87 7 150 10 63 3 133 8 155 11 22 3 60 7 85 9 25 2 65 6 90 10 25 3 58 8 73
10 37 5 53 -22 61 -100 12 -110 19 -126 36 -79 54 150 138 220 273 229 27 2
51 6 55 9 8 9 -44 62 -95 97 -24 17 -43 34 -43 38 0 5 44 76 99 157 147 224
212 335 317 552 52 108 101 209 109 224 26 47 20 56 -27 47 -62 -12 -118 -10
-160 5 -28 10 -41 11 -52 2z"/>
</g>
</svg>
